#!OML:ASF F:\VICON\USERDATA\INSTALL\rory3\rory3.ASF
:FULLY-SPECIFIED
:DEGREES
702
root -1.37054 29.1395 -6.75953 7.23587 -9.4462 1.93027
lowerback 4.25707 0.795068 -1.55491
upperback 1.43728 1.01281 1.71914
thorax -0.968102 0.501948 2.58728
lowerneck -14.5214 2.45854 -9.09635
upperneck 41.5588 7.42113 -1.1
head 17.5994 1.38641 2.46467
rclavicle -2.78299e-014 5.56597e-015
rhumerus -30.3056 -3.31697 -78.8114
rradius 37.8098
rwrist 17.8501
rhand -21.2385 3.17231
rfingers 7.12502
rthumb 5.14402 -26.7453
lclavicle -2.78299e-014 5.56597e-015
lhumerus -32.8911 13.8196 78.0463
lradius 28.5861
lwrist -7.54654
lhand -8.91057 28.7983
lfingers 7.12502
lthumb 17.0325 58.0716
rfemur -16.0096 3.64261 19.7298
rtibia 29.7539
rfoot -16.3828 2.304
rtoes 16.1523
lfemur -22.3646 -9.93731 -16.7731
ltibia 23.9239
lfoot -11.6748 -11.4142
ltoes -19.5667
703
root -1.39911 29.1403 -6.77178 7.25033 -9.02682 1.7744
lowerback 4.31543 0.782755 -1.38052
upperback 1.45581 1.00361 1.76513
thorax -0.979096 0.497317 2.53636
lowerneck -14.6854 2.39959 -9.12635
upperneck 41.6659 7.31731 -0.946565
head 17.6959 1.35259 2.53073
rclavicle 1.5704e-014 -1.11319e-014
rhumerus -30.199 -3.37133 -78.7738
rradius 37.7602
rwrist 17.8642
rhand -21.4148 3.06798
rfingers 7.12502
rthumb 4.97382 -26.8536
lclavicle 1.5704e-014 -1.11319e-014
lhumerus -32.9017 13.7081 78.1164
lradius 28.6483
lwrist -7.2041
lhand -8.64902 28.8376
lfingers 7.12502
lthumb 17.2843 58.089
rfemur -15.8697 3.53758 20.0525
rtibia 29.5287
rfoot -16.4473 1.99566
rtoes 16.2862
lfemur -22.4185 -8.64935 -17.0185
ltibia 24.6342
lfoot -12.0448 -9.27794
ltoes -19.3098
704
root -1.42869 29.1429 -6.7826 7.12252 -8.6636 1.51922
lowerback 4.53725 0.82742 -1.15725
upperback 1.4812 1.07313 1.91004
thorax -1.07945 0.532658 2.55364
lowerneck -14.6958 2.28099 -9.34783
upperneck 41.7259 7.15771 -0.786755
head 17.7233 1.27502 2.61698
rclavicle -5.1684e-015 -4.77083e-014
rhumerus -30.157 -3.52069 -78.503
rradius 37.6736
rwrist 18.0752
rhand -21.5765 3.00569
rfingers 7.12502
rthumb 4.8177 -26.9195
lclavicle -5.1684e-015 -4.77083e-014
lhumerus -33.0039 13.7026 78.3366
lradius 28.7678
lwrist -6.97974
lhand -8.20814 29.1471
lfingers 7.12502
lthumb 17.7086 58.3607
rfemur -15.5538 3.59184 20.4913
rtibia 29.2928
rfoot -16.538 1.60369
rtoes 16.3115
lfemur -22.4095 -7.12393 -17.2186
ltibia 25.3317
lfoot -12.0182 -7.51746
ltoes -18.0011
705
root -1.45498 29.1478 -6.79196 6.99444 -8.32975 1.42453
lowerback 4.69537 0.800864 -1.04386
upperback 1.54707 1.04203 1.93562
thorax -1.09693 0.516629 2.5164
lowerneck -14.7965 2.25823 -9.34915
upperneck 41.7434 7.13298 -0.757239
head 17.7591 1.26696 2.63081
rclavicle -1.98785e-014 -4.45278e-014
rhumerus -29.9231 -3.66967 -78.4403
rradius 37.5227
rwrist 18.3217
rhand -21.4725 2.74714
rfingers 7.12502
rthumb 4.91812 -27.1758
lclavicle -1.98785e-014 -4.45278e-014
lhumerus -33.0562 13.7721 78.3366
lradius 28.8345
lwrist -6.71353
lhand -8.14636 29.2229
lfingers 7.12502
lthumb 17.768 58.4312
rfemur -15.2533 3.60592 20.7321
rtibia 29.0462
rfoot -16.5833 1.29687
rtoes 16.397
lfemur -22.4607 -5.49657 -17.6315
ltibia 25.963
lfoot -11.7823 -5.9271
ltoes -16.0847
706
root -1.4792 29.1552 -6.79853 6.98996 -7.91908 1.54333
lowerback 4.71746 0.727082 -1.22793
upperback 1.48189 0.936923 1.98212
thorax -1.17435 0.465532 2.67344
lowerneck -14.7214 2.23697 -9.38749
upperneck 41.7929 7.1463 -0.839184
head 17.7751 1.25427 2.60151
rclavicle -3.77691e-015 6.36111e-015
rhumerus -29.9994 -3.56581 -78.3133
rradius 37.5822
rwrist 18.6136
rhand -21.2239 2.29402
rfingers 7.12502
rthumb 5.15813 -27.6232
lclavicle -3.77691e-015 6.36111e-015
lhumerus -33.2893 13.8985 78.3176
lradius 28.8171
lwrist -6.56343
lhand -8.14104 29.1248
lfingers 7.12502
lthumb 17.7731 58.3326
rfemur -15.1038 3.56119 20.7166
rtibia 28.7935
rfoot -16.627 0.974593
rtoes 16.6846
lfemur -22.5527 -4.09895 -18.2638
ltibia 26.5151
lfoot -11.7858 -4.23185
ltoes -15.7982
707
root -1.50308 29.165 -6.8038 7.00738 -7.50161 1.60954
lowerback 4.52909 0.709243 -1.2048
upperback 1.53185 0.913669 1.92471
thorax -1.01531 0.451994 2.60481
lowerneck -14.6448 2.16154 -9.3302
upperneck 41.7311 6.96305 -0.757752
head 17.7231 1.20906 2.59344
rclavicle 8.34896e-015 6.36111e-015
rhumerus -29.9222 -3.81837 -78.2468
rradius 37.54
rwrist 19.1147
rhand -21.0634 1.86119
rfingers 7.12502
rthumb 5.31313 -28.0522
lclavicle 8.34896e-015 6.36111e-015
lhumerus -33.2561 13.7247 78.3491
lradius 28.7858
lwrist -6.3535
lhand -8.16173 28.9879
lfingers 7.12502
lthumb 17.7532 58.1975
rfemur -14.9831 3.51688 20.7592
rtibia 28.5705
rfoot -16.6798 0.650323
rtoes 16.827
lfemur -22.6156 -2.97651 -18.7822
ltibia 26.9983
lfoot -11.8385 -2.4712
ltoes -15.9526
708
root -1.52864 29.1726 -6.80738 6.94475 -7.11714 1.68087
lowerback 4.60567 0.690086 -1.33661
upperback 1.49201 0.883138 1.96556
thorax -1.09984 0.437971 2.72189
lowerneck -14.6178 2.14141 -9.3132
upperneck 41.7325 6.92118 -0.740578
head 17.7183 1.20011 2.591
rclavicle 1.86858e-014 2.70347e-014
rhumerus -29.8881 -3.98865 -78.0803
rradius 37.3501
rwrist 19.3065
rhand -21.1882 1.44879
rfingers 7.12502
rthumb 5.19262 -28.4676
lclavicle 1.86858e-014 2.70347e-014
lhumerus -33.4816 13.8374 78.3997
lradius 28.8225
lwrist -6.49597
lhand -8.04002 28.7128
lfingers 7.12502
lthumb 17.8703 57.9117
rfemur -14.7738 3.53316 20.8039
rtibia 28.3642
rfoot -16.7054 0.286556
rtoes 16.6725
lfemur -22.5973 -1.71881 -19.3157
ltibia 27.4344
lfoot -11.8174 -0.911956
ltoes -16.1795
709
root -1.55261 29.1778 -6.80735 6.83701 -6.71509 1.72828
lowerback 4.69385 0.65559 -1.38768
upperback 1.49425 0.834221 1.9421
thorax -1.14429 0.41405 2.72843
lowerneck -14.6052 2.08765 -9.2778
upperneck 41.7018 6.79037 -0.657385
head 17.698 1.16853 2.59941
rclavicle 3.22031e-014 1.74931e-014
rhumerus -29.8445 -4.34181 -78.0253
rradius 37.0848
rwrist 19.0782
rhand -21.3107 1.8131
rfingers 7.12502
rthumb 5.07431 -28.1061
lclavicle 3.22031e-014 1.74931e-014
lhumerus -33.6667 14.1194 78.2754
lradius 28.8015
lwrist -6.9252
lhand -8.04793 28.5846
lfingers 7.12502
lthumb 17.8627 57.7842
rfemur -14.5085 3.41663 20.8795
rtibia 28.1871
rfoot -16.7485 0.0628023
rtoes 16.7338
lfemur -22.5099 -0.318164 -19.8518
ltibia 27.8158
lfoot -11.6862 0.371704
ltoes -16.1167
710
root -1.57381 29.1832 -6.80826 6.79262 -6.28119 1.73235
lowerback 4.65417 0.648726 -1.34317
upperback 1.54926 0.826843 1.94075
thorax -1.06459 0.409008 2.70303
lowerneck -14.6869 1.9835 -9.41267
upperneck 41.6751 6.62124 -0.489118
head 17.6967 1.10531 2.67289
rclavicle 1.13307e-014 1.66979e-014
rhumerus -29.7177 -4.75862 -77.8877
rradius 36.7652
rwrist 18.8315
rhand -21.6037 2.73288
rfingers 7.12502
rthumb 4.79146 -27.1929
lclavicle 1.13307e-014 1.66979e-014
lhumerus -33.6326 14.0013 78.3946
lradius 28.8261
lwrist -6.84231
lhand -7.98052 28.7184
lfingers 7.12502
lthumb 17.9276 57.9121
rfemur -14.3237 3.25503 20.9931
rtibia 28.0259
rfoot -16.8261 -0.1788
rtoes 16.7801
lfemur -22.5066 0.978198 -20.3134
ltibia 28.1627
lfoot -11.5009 1.56428
ltoes -15.5452
711
root -1.59278 29.1885 -6.81106 6.82599 -5.85429 1.82438
lowerback 4.6183 0.692311 -1.34931
upperback 1.49354 0.885703 1.95354
thorax -1.10545 0.439484 2.71638
lowerneck -14.5919 1.85945 -9.64872
upperneck 41.6322 6.44321 -0.34852
head 17.6418 1.02508 2.74399
rclavicle -9.93923e-015 -2.22639e-014
rhumerus -29.7722 -5.3054 -77.5556
rradius 36.5067
rwrist 19.1221
rhand -21.7182 3.38035
rfingers 7.12502
rthumb 4.68087 -26.5479
lclavicle -9.93923e-015 -2.22639e-014
lhumerus -33.6571 13.6066 78.6988
lradius 28.8409
lwrist -6.5864
lhand -7.93898 28.9437
lfingers 7.12502
lthumb 17.9676 58.1338
rfemur -14.2369 3.12713 20.9893
rtibia 27.8612
rfoot -16.906 -0.423706
rtoes 17.023
lfemur -22.5835 2.24098 -20.8731
ltibia 28.457
lfoot -11.2936 2.63489
ltoes -15.3451
712
root -1.61181 29.1941 -6.81142 6.86261 -5.41949 1.8794
lowerback 4.55279 0.590314 -1.39537
upperback 1.3723 0.749373 1.93996
thorax -1.18594 0.373586 2.73598
lowerneck -14.2799 1.90803 -9.55785
upperneck 41.547 6.44537 -0.373661
head 17.5136 1.05027 2.70518
rclavicle 7.55382e-015 1.51076e-014
rhumerus -29.8809 -5.4889 -77.5453
rradius 36.2587
rwrist 19.3099
rhand -21.9594 3.41471
rfingers 7.12502
rthumb 4.44801 -26.5186
lclavicle 7.55382e-015 1.51076e-014
lhumerus -33.918 13.6158 78.5851
lradius 28.78
lwrist -6.69667
lhand -7.87533 29.0293
lfingers 7.12502
lthumb 18.0288 58.2137
rfemur -14.1478 3.02523 21.0313
rtibia 27.7049
rfoot -17.0329 -0.688807
rtoes 17.2275
lfemur -22.6442 3.37652 -21.3483
ltibia 28.6634
lfoot -10.989 3.45168
ltoes -15.2857
713
root -1.63041 29.202 -6.8074 6.8389 -5.01629 1.94749
lowerback 4.43981 0.530688 -1.40536
upperback 1.41198 0.669553 1.91555
thorax -1.07727 0.332189 2.72184
lowerneck -14.2683 1.90586 -9.50994
upperneck 41.4892 6.45075 -0.435374
head 17.483 1.05679 2.66829
rclavicle -1.39149e-015 -1.51076e-014
rhumerus -29.6592 -5.70557 -77.5551
rradius 35.8729
rwrist 18.985
rhand -22.3233 2.93529
rfingers 7.12502
rthumb 4.09659 -27.0051
lclavicle -1.39149e-015 -1.51076e-014
lhumerus -33.891 13.9723 78.4733
lradius 28.5989
lwrist -7.06082
lhand -7.81841 28.6698
lfingers 7.12502
lthumb 18.0836 57.8491
rfemur -14.0028 2.95192 21.0576
rtibia 27.581
rfoot -17.1684 -0.956668
rtoes 17.2429
lfemur -22.6257 4.36544 -21.7777
ltibia 28.7687
lfoot -10.6002 4.16752
ltoes -15.9433
714
root -1.64693 29.2061 -6.80137 6.81932 -4.66844 2.06704
lowerback 4.34916 0.482594 -1.46238
upperback 1.43722 0.60296 1.87369
thorax -0.996969 0.297851 2.71504
lowerneck -14.3248 1.92209 -9.41935
upperneck 41.4532 6.50441 -0.548129
head 17.4853 1.07927 2.61192
rclavicle 4.57205e-015 1.19271e-014
rhumerus -29.4954 -6.02131 -77.4873
rradius 35.5288
rwrist 18.9601
rhand -22.0949 2.52084
rfingers 7.12502
rthumb 4.31711 -27.4152
lclavicle 4.57205e-015 1.19271e-014
lhumerus -33.9555 14.2561 78.4007
lradius 28.5455
lwrist -7.18647
lhand -7.89235 28.5994
lfingers 7.12502
lthumb 18.0124 57.7854
rfemur -13.8782 2.8559 21.0107
rtibia 27.4865
rfoot -17.3058 -1.15989
rtoes 17.3516
lfemur -22.5545 5.27973 -22.2575
ltibia 28.8019
lfoot -10.346 4.88287
ltoes -17.2012
715
root -1.66106 29.2061 -6.79483 6.7493 -4.41629 2.14279
lowerback 4.30304 0.487245 -1.49623
upperback 1.45163 0.607861 1.86165
thorax -0.956902 0.299737 2.72179
lowerneck -14.3423 1.9023 -9.4863
upperneck 41.4233 6.49684 -0.533093
head 17.4707 1.07141 2.62939
rclavicle 3.18055e-015 9.54166e-015
rhumerus -29.5208 -6.252 -77.3195
rradius 35.3176
rwrist 18.9492
rhand -21.7046 2.35266
rfingers 7.12502
rthumb 4.69399 -27.5753
lclavicle 3.18055e-015 9.54166e-015
lhumerus -34.082 14.1836 78.4917
lradius 28.6088
lwrist -6.97809
lhand -8.01241 28.7435
lfingers 7.12502
lthumb 17.8969 57.94
rfemur -13.7213 2.79621 20.996
rtibia 27.4482
rfoot -17.416 -1.28415
rtoes 17.4564
lfemur -22.3322 6.08208 -22.6376
ltibia 28.7447
lfoot -10.1951 5.53566
ltoes -17.5219
716
root -1.675 29.2021 -6.79131 6.67291 -4.12222 2.18998
lowerback 4.34135 0.522616 -1.49529
upperback 1.44366 0.654665 1.84308
thorax -0.989005 0.323632 2.69939
lowerneck -14.4237 1.81622 -9.62334
upperneck 41.4638 6.36051 -0.35861
head 17.507 1.01744 2.71339
rclavicle 1.35174e-014 1.03368e-014
rhumerus -29.5995 -6.51666 -77.1558
rradius 35.1127
rwrist 18.5288
rhand -21.4942 2.18257
rfingers 7.12502
rthumb 4.8972 -27.7408
lclavicle 1.35174e-014 1.03368e-014
lhumerus -34.1276 13.9796 78.6233
lradius 28.6334
lwrist -6.82391
lhand -8.07165 28.9293
lfingers 7.12502
lthumb 17.8399 58.131
rfemur -13.5958 2.78616 21.0326
rtibia 27.4906
rfoot -17.5944 -1.5237
rtoes 17.2249
lfemur -22.0743 6.71607 -22.9264
ltibia 28.5727
lfoot -9.97967 6.03776
ltoes -17.8379
